<?xml version="1.0" encoding="utf-8"?>
<svg version="1.1" id="Layer_1" x="0px" y="0px" width="100%" viewBox="0 0 70 73" enable-background="new 0 0 70 73" xmlns="http://www.w3.org/2000/svg">
  <path fill="#FFFFFF" opacity="1.000000" stroke="none" d="M 50.001 73 C 33.001 73 16.501 73 0.001 73 C 0 48.667 0 24.334 0 0.001 C 23.333 0 46.666 0 69.999 0 C 70 24.333 70 48.666 70 72.999 C 63.5 73 57.001 73 50.001 73 M 40.2 47.663 C 41.01 47.958 41.821 48.254 42.631 48.549 C 42.747 48.355 42.863 48.16 42.979 47.965 C 42.214 47.416 41.45 46.866 40.196 45.785 C 33.353 44.017 26.511 42.25 19.364 40.404 C 18.886 37.653 16.866 34.294 17.582 30.153 C 17.114 30.236 16.647 30.318 16.18 30.401 C 16.386 32.092 16.592 33.783 16.864 36.01 C 12.818 31.915 11.615 26.586 14.303 22.618 C 18.96 15.744 24.91 20.202 30.572 21.408 C 29.286 19.972 27.816 18.985 26.474 17.845 C 19.621 12.026 11.03 16.108 9.557 23.794 C 8.532 29.143 9.269 33.739 13.029 37.366 C 16.134 40.362 16.821 43.26 15.088 47.047 C 14.593 48.129 14.494 49.391 13.937 51.731 C 23.61 47.532 32.526 49.255 41.422 51.8 C 41.532 51.167 41.642 50.533 41.752 49.899 C 34.339 48.273 26.927 46.646 20.078 45.143 C 26.47 42.276 33.21 44.433 40.2 47.663 M 50.603 45.017 C 52.263 44.375 54.011 43.895 55.569 43.06 C 60.322 40.511 62.823 34.752 61.976 28.676 C 61.23 23.331 58.327 20.667 52.678 18.805 C 46.305 16.704 41.124 19.744 35.856 22.118 C 30.05 24.735 24.532 29.118 18.684 21.571 C 20.997 29.176 24.572 31.132 31.099 28.882 C 33.873 27.926 36.418 26.256 39.221 25.443 C 42.95 24.36 46.879 23.046 50.626 23.291 C 52.868 23.438 55.907 25.938 56.885 28.138 C 59.778 34.643 57.047 38.719 48.708 41.744 C 47.779 36.369 45.467 34.032 40.85 35.124 C 33.906 36.766 27.173 37.6 20.285 34.743 C 23.797 36.758 27.444 38.25 31.236 38.888 C 34.475 39.434 37.892 39.184 41.207 38.953 C 44.72 38.707 46.082 40.389 45.967 43.573 C 45.853 46.703 45.527 49.825 45.267 53.303 C 46.922 50.32 48.371 47.707 50.603 45.017 Z"/>
  <path fill="#DA291C" opacity="1.000000" stroke="none" d="M 49.574 47.358 C 47.733 50.01 46.284 52.622 44.63 55.605 C 44.889 52.127 45.216 49.005 45.329 45.875 C 45.444 42.691 44.082 41.01 40.57 41.255 C 37.255 41.487 33.837 41.737 30.598 41.191 C 26.807 40.552 23.159 39.061 19.647 37.046 C 26.536 39.902 33.268 39.069 40.212 37.427 C 44.83 36.335 47.142 38.672 48.07 44.046 C 56.409 41.022 59.14 36.946 56.247 30.44 C 55.269 28.24 52.23 25.74 49.988 25.593 C 46.241 25.348 42.312 26.662 38.584 27.745 C 35.78 28.559 33.236 30.228 30.461 31.185 C 23.935 33.434 20.359 31.478 18.046 23.873 C 23.895 31.42 29.412 27.037 35.219 24.42 C 40.486 22.047 45.667 19.006 52.041 21.107 C 57.69 22.969 60.592 25.634 61.338 30.979 C 62.185 37.054 59.684 42.814 54.931 45.362 C 53.373 46.197 51.626 46.677 49.574 47.358 Z"/>
  <path fill="#D9291C" opacity="1.000000" stroke="none" d="M 40.386 50.155 C 34.195 47.769 27.017 44.446 19.44 47.445 C 26.064 49.334 29.659 49.638 37.252 52.212 C 37.559 52.457 40.894 53.469 40.784 54.102 C 31.888 51.557 22.972 49.834 13.299 54.033 C 13.861 51.698 14.185 50.807 14.45 49.495 C 15.275 45.413 15.496 42.664 12.391 39.668 C 8.631 36.041 7.894 31.445 8.919 26.096 C 10.392 18.41 18.983 14.328 25.836 20.147 C 27.178 21.287 28.648 22.274 29.934 23.71 C 24.272 22.504 18.322 18.046 13.665 24.92 C 10.977 28.888 12.18 34.217 16.226 38.312 C 15.959 36.076 16.169 31.667 15.505 30.826 C 15.972 30.743 16.414 32.197 16.6 32.809 C 17.252 36.559 18.248 39.955 18.726 42.706 C 26.287 43.633 33.335 45.681 39.606 49.276 C 40.098 49.642 40.514 50.024 40.386 50.155 Z"/>
</svg>